<svg xmlns="http://www.w3.org/2000/svg" viewBox="0 0 64 64" fill="none" role="img" aria-label="Kind Table">
  <!-- Ink plate -->
  <circle cx="32" cy="32" r="30" fill="#14201c"/>
  <!-- Gold outer ring -->
  <circle cx="32" cy="32" r="28.5" stroke="#b8954a" stroke-width="1.5"/>
  <!-- Soft inner ring -->
  <circle cx="32" cy="32" r="24" stroke="#d4b76a" stroke-width="0.75" opacity="0.55"/>
  <!-- Table top -->
  <rect x="16" y="28" width="32" height="3.5" rx="1" fill="#f4f7f4"/>
  <!-- Table apron -->
  <rect x="18.5" y="31.5" width="27" height="1.5" fill="#6b8f7a"/>
  <!-- Pedestal -->
  <rect x="29.5" y="33" width="5" height="10" rx="0.5" fill="#e8efe9"/>
  <!-- Base -->
  <rect x="23" y="42.5" width="18" height="2.5" rx="1" fill="#f4f7f4"/>
  <!-- Place setting: plate -->
  <circle cx="32" cy="23.5" r="5.5" stroke="#b8954a" stroke-width="1.25" fill="none"/>
  <circle cx="32" cy="23.5" r="3.25" stroke="#d4b76a" stroke-width="0.75" fill="none" opacity="0.8"/>
  <!-- Leaf accent (kind / garden) -->
  <path d="M42.5 20.5c2.8 1.2 4.2 3.6 3.2 5.2-1.6-.4-3.4-1.8-3.8-4-.2-1 .2-1.2.6-1.2z" fill="#6b8f7a"/>
  <path d="M21.5 20.5c-2.8 1.2-4.2 3.6-3.2 5.2 1.6-.4 3.4-1.8 3.8-4 .2-1-.2-1.2-.6-1.2z" fill="#6b8f7a"/>
</svg>
